<svg width="782" height="652" viewBox="0 0 782 652" fill="none" xmlns="http://www.w3.org/2000/svg">
<g id="undraw_delivery_address_03n0 1">
<path id="Vector" d="M563.731 614.659H87.3743V616.922H563.731V614.659Z" fill="#3F3D56"/>
<path id="Vector_2" d="M339.996 303.247C339.996 303.247 329.886 354.152 350.105 345.102C370.324 336.052 358.193 300.984 358.193 300.984L339.996 303.247Z" fill="#FFB9B9"/>
<path id="Vector_3" d="M529.043 320.215C529.043 320.215 553.306 353.02 538.142 359.808C522.977 366.595 514.89 329.265 516.912 325.871C518.934 322.477 529.043 320.215 529.043 320.215Z" fill="#FFB9B9"/>
<path id="Vector_4" d="M471.419 88.3139C488.169 88.3139 501.748 73.1199 501.748 54.3772C501.748 35.6344 488.169 20.4404 471.419 20.4404C454.669 20.4404 441.091 35.6344 441.091 54.3772C441.091 73.1199 454.669 88.3139 471.419 88.3139Z" fill="#FFB9B9"/>
<path id="Vector_5" d="M448.673 67.3865L444.629 102.454L477.99 116.029L485.067 76.4357L448.673 67.3865Z" fill="#FFB9B9"/>
<path id="Vector_6" d="M467.375 101.889C467.375 101.889 450.237 92.4213 446.675 84.7114L439.069 92.8387C439.069 92.8387 384.477 87.1826 376.39 117.726C368.302 148.269 375.379 259.129 375.379 259.129C375.379 259.129 364.258 308.903 367.291 310.034C370.324 311.165 407.729 331.527 460.299 320.215C460.299 320.215 483.55 315.69 487.594 319.084C491.638 322.477 485.572 264.785 485.572 264.785C485.572 264.785 526.01 162.975 518.934 150.531C511.857 138.088 480.518 112.07 480.518 112.07L482.539 99.626C482.539 99.626 468.386 106.413 467.375 101.889Z" fill="#CFCCE0"/>
<path id="Vector_7" d="M384.477 109.807C384.477 109.807 366.28 119.988 363.247 135.825C360.215 151.662 331.908 282.885 334.941 290.803C337.974 298.722 336.963 308.903 336.963 308.903L363.247 305.509C363.247 305.509 358.193 297.59 361.226 294.197C364.258 290.803 367.291 279.491 365.269 274.966C363.247 270.441 361.226 278.36 372.346 263.654C383.466 248.948 408.74 114.332 384.477 109.807Z" fill="#CFCCE0"/>
<path id="Vector_8" d="M512.868 148.269C512.868 148.269 521.461 148.834 523.483 164.672C525.505 180.509 529.043 278.36 529.043 278.36C529.043 278.36 542.186 310.034 537.131 314.559C532.076 319.084 535.109 325.871 535.109 325.871L516.912 331.527L477.485 262.522L512.868 148.269Z" fill="#CFCCE0"/>
<path id="Vector_9" d="M370.324 305.509C370.324 305.509 364.258 306.64 364.258 331.527C364.258 356.414 353.138 433.337 360.215 445.781C367.291 458.224 368.302 570.216 368.302 570.216C368.302 570.216 387.51 579.265 403.685 549.854L405.707 534.016L409.751 457.093L425.926 360.939L448.167 467.274C448.167 467.274 445.134 595.103 456.255 595.103C467.375 595.103 488.605 584.922 488.605 584.922C488.605 584.922 493.66 573.609 491.638 567.953C489.616 562.297 487.594 563.428 489.616 558.903C491.638 554.378 494.671 436.731 494.671 436.731C494.671 436.731 490.627 315.69 485.572 312.296C480.518 308.903 370.324 305.509 370.324 305.509Z" fill="#2F2E41"/>
<path id="Vector_10" d="M370.324 565.69L354.149 584.921C354.149 584.921 324.831 615.464 350.105 616.596C375.379 617.727 389.532 598.496 389.532 596.233C389.532 593.971 390.543 586.052 397.62 586.052C404.696 586.052 421.883 566.822 417.839 558.903C413.795 550.984 401.664 547.591 401.664 547.591L370.324 565.69Z" fill="#2F2E41"/>
<path id="Vector_11" d="M457.266 590.577C457.266 590.577 445.134 617.727 452.211 623.383C459.288 629.039 461.31 631.302 461.31 631.302C461.31 631.302 467.375 630.17 466.364 640.351C465.353 650.532 502.758 656.189 504.78 648.27C506.802 640.351 505.791 624.514 501.748 619.989C497.704 615.464 485.572 583.79 485.572 583.79C485.572 583.79 472.43 566.822 457.266 590.577Z" fill="#2F2E41"/>
<path id="Vector_12" d="M502.028 27.1268L507.741 26.2187C507.741 26.2187 499.787 9.8381 484.393 6.8637L489.797 2.78267C489.797 2.78267 480.407 -4.72615 468.272 4.9255C461.893 9.99914 454.486 15.9881 449.038 23.5262L443.465 22.0021L444.539 28.3692L435.146 31.8739L443.727 33.1297C442.544 36.1319 441.768 39.315 441.424 42.5737C441.092 45.8364 441.905 49.116 443.692 51.7205C443.692 51.7205 453.411 38.5369 453.92 36.2056L452.647 42.0339C452.647 42.0339 458.997 38.2116 459.761 34.7147L461.708 39.5707L464.528 33.5478L480.632 44.7458L478.939 38.7242L489.438 43.4483L486.581 35.8728C486.581 35.8728 497.226 46.8133 496.299 53.3537C495.372 59.8941 497.646 66.9535 497.646 66.9535C497.646 66.9535 513.838 39.621 502.028 27.1268Z" fill="#2F2E41"/>
<path id="Vector_13" d="M782 411.629H620.104V413.797H782V411.629Z" fill="#3F3D56"/>
<path id="Vector_14" d="M176.847 578.656H137.823V622.323H176.847V578.656Z" fill="#CFCCE0"/>
<path id="Vector_15" d="M171.712 616.578H130.634V570.612H171.712V616.578ZM132.688 614.279H169.658V572.91H132.688L132.688 614.279Z" fill="#3F3D56"/>
<g id="cube1">
<path id="Vector_16" d="M219.543 197.102L194.846 207.79L204.067 234.468L228.764 223.78L219.543 197.102Z" fill="#F2F2F2"/>
<path id="Vector_17" d="M224.301 221.676L198.304 232.926L188.598 204.844L214.595 193.594L224.301 221.676ZM199.119 230.96L222.516 220.834L213.78 195.56L190.383 205.686L199.119 230.96Z" fill="#3F3D56"/>
</g>
<g id="cube2">
<path id="Vector_18" d="M673.349 522.328L664.74 494.308L640.566 503.608L649.175 531.628L673.349 522.328Z" fill="#F2F2F2"/>
<path id="Vector_19" d="M651.223 526.717L642.161 497.222L667.607 487.433L676.669 516.928L651.223 526.717ZM643.887 498.208L652.043 524.753L674.944 515.943L666.788 489.397L643.887 498.208Z" fill="#3F3D56"/>
</g>
<path id="Vector_20" d="M122.784 383.038C137.264 383.386 148.782 395.127 148.782 395.127C148.782 395.127 136.824 406.305 122.345 405.958C107.865 405.61 96.3472 393.869 96.3472 393.869C96.3472 393.869 108.305 382.691 122.784 383.038Z" fill="#63C7FF"/>
<path id="Vector_21" d="M49.9889 327.732C63.0705 334.686 78.0709 329.97 78.0709 329.97C78.0709 329.97 71.8618 313.98 58.7802 307.025C45.6986 300.071 30.6982 304.787 30.6982 304.787C30.6982 304.787 36.9073 320.778 49.9889 327.732Z" fill="#6C63FF"/>
<path id="Vector_22" d="M51.3186 320.821C65.7413 319.346 78.3655 329.566 78.3655 329.566C78.3655 329.566 67.6058 342.176 53.1831 343.651C38.7604 345.126 26.1362 334.907 26.1362 334.907C26.1362 334.907 36.8959 322.296 51.3186 320.821Z" fill="#3F3D56"/>
<path id="Vector_23" d="M104.188 323.616C102.805 339.747 111.882 353.919 111.882 353.919C111.882 353.919 123.199 341.936 124.581 325.804C125.964 309.672 116.888 295.5 116.888 295.5C116.888 295.5 105.57 307.484 104.188 323.616Z" fill="#3F3D56"/>
<path id="Vector_24" d="M172.112 422.552C164.547 436.371 167.149 453.561 167.149 453.561C167.149 453.561 182.017 448.346 189.582 434.526C197.147 420.707 194.544 403.517 194.544 403.517C194.544 403.517 179.676 408.732 172.112 422.552Z" fill="#3F3D56"/>
<path id="Vector_25" d="M150.165 572.805L151.268 571.971C147.382 565.661 145.26 558.201 145.172 550.538C145.203 539.33 150.123 528.963 154.881 518.937C155.765 517.076 156.645 515.22 157.492 513.367C161.046 505.808 163.879 497.85 165.943 489.626C173.324 458.935 166.057 422.726 146.505 392.765C130.995 368.998 107.873 348.215 75.8207 329.228L75.1984 330.544C107.068 349.422 130.042 370.063 145.431 393.644C164.747 423.243 171.935 458.98 164.658 489.24C162.618 497.363 159.819 505.223 156.307 512.689C155.463 514.536 154.586 516.384 153.706 518.238C148.872 528.424 143.873 538.957 143.842 550.534C143.929 558.495 146.131 566.247 150.165 572.805V572.805Z" fill="#3F3D56"/>
<path id="Vector_26" d="M12.6398 331.184C19.6204 331.184 25.2794 324.852 25.2794 317.041C25.2794 309.23 19.6204 302.898 12.6398 302.898C5.65917 302.898 0.000244141 309.23 0.000244141 317.041C0.000244141 324.852 5.65917 331.184 12.6398 331.184Z" fill="#3F3D56"/>
<path id="Vector_27" d="M700.729 400.583L538.033 335.197L567.079 244.702L668.382 216.902L729.776 310.089L700.729 400.583Z" fill="#2F2E41"/>
<path id="Vector_28" d="M681.02 382.638L559.436 330.777C591 283.469 605.114 250.097 605.125 197.585L726.708 249.446C698.462 294.343 686.65 328.094 681.02 382.638Z" fill="#F2F2F2"/>
<path id="Vector_29" d="M690.59 256.543L627.6 229.675L626.484 232.953L689.473 259.821L690.59 256.543Z" fill="#3F3D56"/>
<path id="Vector_30" d="M686.123 269.656L623.133 242.788L622.017 246.066L685.006 272.934L686.123 269.656Z" fill="#3F3D56"/>
<path id="Vector_31" d="M681.655 282.769L618.666 255.901L617.549 259.179L680.539 286.047L681.655 282.769Z" fill="#3F3D56"/>
<path id="Vector_32" d="M677.188 295.882L614.199 269.014L613.082 272.292L676.071 299.16L677.188 295.882Z" fill="#3F3D56"/>
<path id="Vector_33" d="M672.721 308.995L609.732 282.127L608.615 285.406L671.604 312.273L672.721 308.995Z" fill="#3F3D56"/>
<path id="Vector_34" d="M668.254 322.108L605.265 295.24L604.148 298.519L667.137 325.387L668.254 322.108Z" fill="#3F3D56"/>
<path id="Vector_35" d="M663.787 335.221L600.797 308.354L599.681 311.632L662.67 338.5L663.787 335.221Z" fill="#3F3D56"/>
<path id="Vector_36" d="M659.319 348.335L596.33 321.467L595.213 324.745L658.203 351.613L659.319 348.335Z" fill="#3F3D56"/>
<path id="Vector_37" d="M696.971 412.294L534.274 346.908L567.079 244.702L635.784 316.787L729.776 310.089L696.971 412.294Z" fill="#3F3D56"/>
<path id="Vector_38" d="M614.303 380.089L533.178 347.486L552.945 285.899L554.558 286.547L535.37 346.329L614.882 378.284L614.303 380.089Z" fill="#6C63FF"/>
<path id="Vector_39" d="M585.466 314.593L561.68 305.034L558.263 315.68L582.049 325.24L585.466 314.593Z" fill="#6C63FF"/>
<g id="letter">
<path id="Vector_40" d="M316.528 615.465L189.191 615.389L190.191 535.396L253.474 567.224L317.528 537.389L316.528 615.465Z" fill="#3F3D56"/>
<path id="Vector_41" d="M217.946 579.169L199.33 578.877L199.226 587.21L217.842 587.501L217.946 579.169Z" fill="#6C63FF"/>
<path id="Vector_42" d="M317.954 537.28L253.59 573.997L189.856 537.28V535.162H317.954V537.28Z" fill="#6C63FF"/>
</g>
<path id="Vector_43" d="M687.97 234.511C689.491 230.044 681.766 222.602 670.714 217.888C659.663 213.174 649.471 212.974 647.949 217.44C646.428 221.907 654.153 229.349 665.204 234.063C676.256 238.777 686.448 238.977 687.97 234.511Z" fill="#60DEB1"/>
<g id="location">
<path id="Vector_44" d="M705.459 98.2972C701.377 96.8769 697.085 96.3702 692.828 96.806C688.571 97.2418 684.433 98.6115 680.649 100.837C676.865 103.062 673.51 106.1 670.776 109.776C668.041 113.452 665.98 117.695 664.711 122.263C659.373 141.472 673.92 211.791 673.92 211.791C673.92 211.791 721.538 163.101 726.876 143.892C729.439 134.668 728.623 124.682 724.606 116.131C720.59 107.581 713.702 101.165 705.459 98.2972V98.2972ZM691.216 149.553C688.304 148.539 685.725 146.583 683.807 143.93C681.889 141.277 680.717 138.048 680.439 134.649C680.161 131.251 680.79 127.837 682.246 124.839C683.703 121.841 685.921 119.393 688.62 117.806C691.319 116.218 694.379 115.562 697.411 115.92C700.444 116.278 703.314 117.634 705.658 119.817C708.001 122 709.714 124.912 710.579 128.184C711.444 131.456 711.422 134.942 710.517 138.2C709.916 140.364 708.94 142.374 707.644 144.115C706.349 145.857 704.76 147.295 702.967 148.35C701.175 149.404 699.215 150.052 697.198 150.259C695.182 150.465 693.149 150.225 691.216 149.553V149.553Z" fill="#5CE6CD"/>
</g>
</g>
</svg>
