<svg width="818" height="652" viewBox="0 0 818 652" fill="none" xmlns="http://www.w3.org/2000/svg">
<g id="undraw_delivery_address_03n0 1">
<path id="Vector" d="M589.683 614.659H91.3966V616.922H589.683V614.659Z" fill="#3F3D56"/>
<path id="Vector_2" d="M355.648 303.247C355.648 303.247 345.073 354.152 366.223 345.102C387.372 336.052 374.682 300.984 374.682 300.984L355.648 303.247Z" fill="#FFB9B9"/>
<path id="Vector_3" d="M553.398 320.215C553.398 320.215 578.778 353.02 562.915 359.808C547.053 366.595 538.593 329.265 540.708 325.871C542.823 322.477 553.398 320.215 553.398 320.215Z" fill="#FFB9B9"/>
<path id="Vector_4" d="M493.121 88.3139C510.642 88.3139 524.846 73.1199 524.846 54.3772C524.846 35.6344 510.642 20.4404 493.121 20.4404C475.6 20.4404 461.396 35.6344 461.396 54.3772C461.396 73.1199 475.6 88.3139 493.121 88.3139Z" fill="#FFB9B9"/>
<path id="Vector_5" d="M469.328 67.3865L465.098 102.454L499.995 116.029L507.398 76.4357L469.328 67.3865Z" fill="#FFB9B9"/>
<path id="Vector_6" d="M488.891 101.889C488.891 101.889 470.964 92.4213 467.238 84.7114L459.282 92.8387C459.282 92.8387 402.177 87.1826 393.717 117.726C385.257 148.269 392.66 259.129 392.66 259.129C392.66 259.129 381.027 308.903 384.2 310.034C387.372 311.165 426.499 331.527 481.489 320.215C481.489 320.215 505.811 315.69 510.041 319.084C514.271 322.477 507.926 264.785 507.926 264.785C507.926 264.785 550.226 162.975 542.823 150.531C535.421 138.088 502.639 112.07 502.639 112.07L504.754 99.626C504.754 99.626 489.949 106.413 488.891 101.889Z" fill="#CFCCE0"/>
<path id="Vector_7" d="M402.177 109.807C402.177 109.807 383.142 119.988 379.97 135.825C376.797 151.662 347.188 282.885 350.36 290.803C353.533 298.722 352.475 308.903 352.475 308.903L379.97 305.509C379.97 305.509 374.682 297.59 377.855 294.197C381.027 290.803 384.2 279.491 382.085 274.966C379.97 270.441 377.855 278.36 389.487 263.654C401.12 248.948 427.557 114.332 402.177 109.807Z" fill="#CFCCE0"/>
<path id="Vector_8" d="M536.478 148.269C536.478 148.269 545.467 148.834 547.582 164.672C549.697 180.509 553.398 278.36 553.398 278.36C553.398 278.36 567.146 310.034 561.858 314.559C556.571 319.084 559.743 325.871 559.743 325.871L540.708 331.527L499.466 262.522L536.478 148.269Z" fill="#CFCCE0"/>
<path id="Vector_9" d="M387.372 305.509C387.372 305.509 381.027 306.64 381.027 331.527C381.027 356.414 369.395 433.337 376.797 445.781C384.2 458.224 385.257 570.216 385.257 570.216C385.257 570.216 405.35 579.265 422.269 549.854L424.384 534.016L428.614 457.093L445.534 360.939L468.799 467.274C468.799 467.274 465.626 595.103 477.259 595.103C488.891 595.103 511.098 584.922 511.098 584.922C511.098 584.922 516.386 573.609 514.271 567.953C512.156 562.297 510.041 563.428 512.156 558.903C514.271 554.378 517.443 436.731 517.443 436.731C517.443 436.731 513.213 315.69 507.926 312.296C502.639 308.903 387.372 305.509 387.372 305.509Z" fill="#2F2E41"/>
<path id="Vector_10" d="M387.372 565.69L370.452 584.921C370.452 584.921 339.785 615.464 366.222 616.596C392.66 617.727 407.465 598.496 407.465 596.233C407.465 593.971 408.522 586.052 415.924 586.052C423.327 586.052 441.304 566.822 437.074 558.903C432.844 550.984 420.154 547.591 420.154 547.591L387.372 565.69Z" fill="#2F2E41"/>
<path id="Vector_11" d="M478.316 590.577C478.316 590.577 465.626 617.727 473.029 623.383C480.431 629.039 482.546 631.302 482.546 631.302C482.546 631.302 488.891 630.17 487.834 640.351C486.776 650.532 525.903 656.189 528.018 648.27C530.133 640.351 529.076 624.514 524.846 619.989C520.616 615.464 507.926 583.79 507.926 583.79C507.926 583.79 494.179 566.822 478.316 590.577Z" fill="#2F2E41"/>
<path id="Vector_12" d="M525.139 27.1268L531.115 26.2187C531.115 26.2187 522.795 9.8381 506.693 6.8637L512.345 2.78267C512.345 2.78267 502.523 -4.72615 489.829 4.9255C483.157 9.99914 475.409 15.9881 469.71 23.5262L463.88 22.0021L465.004 28.3692L455.179 31.8739L464.155 33.1297C462.917 36.1319 462.105 39.315 461.746 42.5737C461.398 45.8364 462.248 49.116 464.118 51.7205C464.118 51.7205 474.284 38.5369 474.817 36.2056L473.485 42.0339C473.485 42.0339 480.127 38.2116 480.926 34.7147L482.963 39.5707L485.913 33.5478L502.758 44.7458L500.987 38.7242L511.97 43.4483L508.981 35.8728C508.981 35.8728 520.117 46.8133 519.147 53.3537C518.177 59.8941 520.555 66.9535 520.555 66.9535C520.555 66.9535 537.493 39.621 525.139 27.1268Z" fill="#2F2E41"/>
<path id="Vector_13" d="M818 411.629H648.651V413.797H818V411.629Z" fill="#3F3D56"/>
<path id="Vector_14" d="M184.988 578.656H144.167V622.323H184.988V578.656Z" fill="#CFCCE0"/>
<path id="Vector_15" d="M179.617 616.578H136.648V570.612H179.617V616.578ZM138.796 614.279H177.469V572.91H138.796L138.796 614.279Z" fill="#3F3D56"/>
<g id="cube1">
<path id="Vector_16" d="M229.65 197.102L203.816 207.79L213.461 234.468L239.295 223.78L229.65 197.102Z" fill="#F2F2F2"/>
<path id="Vector_17" d="M234.627 221.676L207.433 232.926L197.281 204.844L224.474 193.594L234.627 221.676ZM208.285 230.96L232.76 220.834L223.622 195.56L199.148 205.686L208.285 230.96Z" fill="#3F3D56"/>
</g>
<g id="cube2">
<path id="Vector_18" d="M704.347 522.328L695.342 494.308L670.055 503.608L679.061 531.628L704.347 522.328Z" fill="#F2F2F2"/>
<path id="Vector_19" d="M681.203 526.717L671.724 497.222L698.341 487.433L707.82 516.928L681.203 526.717ZM673.529 498.208L682.06 524.753L706.016 515.943L697.484 489.397L673.529 498.208Z" fill="#3F3D56"/>
</g>
<path id="Vector_20" d="M128.437 383.038C143.583 383.386 155.631 395.127 155.631 395.127C155.631 395.127 143.123 406.305 127.977 405.958C112.831 405.61 100.783 393.869 100.783 393.869C100.783 393.869 113.291 382.691 128.437 383.038Z" fill="#63C7FF"/>
<path id="Vector_21" d="M52.2902 327.732C65.974 334.686 81.6649 329.97 81.6649 329.97C81.6649 329.97 75.1701 313.98 61.4862 307.025C47.8024 300.071 32.1115 304.787 32.1115 304.787C32.1115 304.787 38.6063 320.778 52.2902 327.732Z" fill="#6C63FF"/>
<path id="Vector_22" d="M53.6812 320.821C68.7678 319.346 81.9731 329.566 81.9731 329.566C81.9731 329.566 70.7182 342.176 55.6315 343.651C40.5448 345.126 27.3395 334.907 27.3395 334.907C27.3395 334.907 38.5945 322.296 53.6812 320.821Z" fill="#3F3D56"/>
<path id="Vector_23" d="M108.984 323.616C107.538 339.747 117.032 353.919 117.032 353.919C117.032 353.919 128.871 341.936 130.317 325.804C131.763 309.672 122.269 295.5 122.269 295.5C122.269 295.5 110.43 307.484 108.984 323.616Z" fill="#3F3D56"/>
<path id="Vector_24" d="M180.035 422.552C172.122 436.371 174.844 453.561 174.844 453.561C174.844 453.561 190.396 448.346 198.31 434.526C206.223 420.707 203.5 403.517 203.5 403.517C203.5 403.517 187.948 408.732 180.035 422.552Z" fill="#3F3D56"/>
<path id="Vector_25" d="M157.078 572.805L158.231 571.971C154.167 565.661 151.947 558.201 151.855 550.538C151.887 539.33 157.034 528.963 162.011 518.937C162.935 517.076 163.856 515.22 164.742 513.367C168.46 505.808 171.423 497.85 173.582 489.626C181.303 458.935 173.701 422.726 153.25 392.765C137.025 368.998 112.839 348.215 79.3112 329.228L78.6602 330.544C111.997 349.422 136.028 370.063 152.126 393.644C172.331 423.243 179.85 458.98 172.238 489.24C170.104 497.363 167.176 505.223 163.503 512.689C162.62 514.536 161.703 516.384 160.782 518.238C155.726 528.424 150.497 538.957 150.463 550.534C150.555 558.495 152.858 566.247 157.078 572.805V572.805Z" fill="#3F3D56"/>
<path id="Vector_26" d="M13.2217 331.184C20.5237 331.184 26.4431 324.852 26.4431 317.041C26.4431 309.23 20.5237 302.898 13.2217 302.898C5.91968 302.898 0.000244141 309.23 0.000244141 317.041C0.000244141 324.852 5.91968 331.184 13.2217 331.184Z" fill="#3F3D56"/>
<path id="Vector_27" d="M732.988 400.583L562.801 335.197L593.185 244.702L699.151 216.902L763.372 310.089L732.988 400.583Z" fill="#2F2E41"/>
<path id="Vector_28" d="M712.371 382.638L585.19 330.777C618.207 283.469 632.971 250.097 632.982 197.585L760.163 249.446C730.616 294.343 718.26 328.094 712.371 382.638Z" fill="#F2F2F2"/>
<path id="Vector_29" d="M722.382 256.543L656.493 229.675L655.324 232.953L721.213 259.821L722.382 256.543Z" fill="#3F3D56"/>
<path id="Vector_30" d="M717.709 269.656L651.82 242.788L650.652 246.066L716.54 272.934L717.709 269.656Z" fill="#3F3D56"/>
<path id="Vector_31" d="M713.036 282.769L647.147 255.901L645.979 259.179L711.868 286.047L713.036 282.769Z" fill="#3F3D56"/>
<path id="Vector_32" d="M708.363 295.882L642.474 269.014L641.306 272.292L707.195 299.16L708.363 295.882Z" fill="#3F3D56"/>
<path id="Vector_33" d="M703.69 308.995L637.801 282.127L636.633 285.406L702.522 312.273L703.69 308.995Z" fill="#3F3D56"/>
<path id="Vector_34" d="M699.017 322.108L633.128 295.24L631.96 298.519L697.849 325.387L699.017 322.108Z" fill="#3F3D56"/>
<path id="Vector_35" d="M694.345 335.221L628.456 308.354L627.287 311.632L693.176 338.5L694.345 335.221Z" fill="#3F3D56"/>
<path id="Vector_36" d="M689.672 348.335L623.783 321.467L622.614 324.745L688.503 351.613L689.672 348.335Z" fill="#3F3D56"/>
<path id="Vector_37" d="M729.056 412.294L558.87 346.908L593.185 244.702L665.053 316.787L763.372 310.089L729.056 412.294Z" fill="#3F3D56"/>
<path id="Vector_38" d="M642.583 380.089L557.724 347.486L578.4 285.899L580.088 286.547L560.017 346.329L643.188 378.284L642.583 380.089Z" fill="#6C63FF"/>
<path id="Vector_39" d="M612.419 314.593L587.537 305.034L583.963 315.68L608.844 325.24L612.419 314.593Z" fill="#6C63FF"/>
<g id="letter">
<path id="Vector_40" d="M331.1 615.465L197.901 615.389L198.946 535.396L265.143 567.224L332.146 537.389L331.1 615.465Z" fill="#3F3D56"/>
<path id="Vector_41" d="M227.98 579.169L208.506 578.877L208.397 587.21L227.871 587.501L227.98 579.169Z" fill="#6C63FF"/>
<path id="Vector_42" d="M332.591 537.28L265.264 573.997L198.596 537.28V535.162H332.591V537.28Z" fill="#6C63FF"/>
</g>
<path id="Vector_43" d="M719.641 234.511C721.232 230.044 713.151 222.602 701.591 217.888C690.031 213.174 679.37 212.974 677.778 217.44C676.186 221.907 684.267 229.349 695.828 234.063C707.388 238.777 718.049 238.977 719.641 234.511Z" fill="#60DEB1"/>
<g id="location">
<path id="Vector_44" d="M737.935 98.2972C733.665 96.8769 729.176 96.3702 724.723 96.806C720.27 97.2418 715.941 98.6115 711.983 100.837C708.025 103.062 704.516 106.1 701.655 109.776C698.795 113.452 696.639 117.695 695.312 122.263C689.728 141.472 704.945 211.791 704.945 211.791C704.945 211.791 754.755 163.101 760.338 143.892C763.02 134.668 762.166 124.682 757.964 116.131C753.763 107.581 746.558 101.165 737.935 98.2972V98.2972ZM723.036 149.553C719.99 148.539 717.293 146.583 715.287 143.93C713.28 141.277 712.054 138.048 711.764 134.649C711.473 131.251 712.131 127.837 713.654 124.839C715.177 121.841 717.497 119.393 720.321 117.806C723.145 116.218 726.345 115.562 729.517 115.92C732.69 116.278 735.691 117.634 738.143 119.817C740.595 122 742.386 124.912 743.291 128.184C744.196 131.456 744.173 134.942 743.226 138.2C742.597 140.364 741.576 142.374 740.221 144.115C738.866 145.857 737.204 147.295 735.329 148.35C733.454 149.404 731.404 150.052 729.294 150.259C727.185 150.465 725.059 150.225 723.036 149.553V149.553Z" fill="#5CE6CD"/>
</g>
</g>
</svg>
